;TYPE=PLATED
;Layer: PTH_Through
;EasyEDA Pro v3.2.149, 2026-10-06 15:49:22
;Gerber Generator version 0.3
M48
METRIC,LZ,0000.00000
;Hole size 1 = 0.30500 METRIC
T01C0.30500
;Hole size 2 = 0.80000 METRIC
T02C0.80000
;Hole size 3 = 3.00000 METRIC
T03C3.00000
%
G05
G90
T01
X24.65134Y17.02236
X25.654Y16.256
X25.654Y17.78022
X23.66045Y17.78022
X23.66045Y16.25668
X6.985Y23.876
X26.55634Y12.954
X28.702Y22.479
X42.926Y23.876
X27.686Y18.288
X27.686Y15.748
X28.956Y18.288
X28.956Y15.748
X28.194Y17.018
X22.098Y11.43
X22.098Y14.11406
X21.59Y15.494
X20.32Y15.494
X21.082Y17.018
X20.32Y18.288
X21.59Y18.288
T02
X11.176Y25.638
X11.176Y23.638
X38.1Y25.638
X38.1Y23.638
T03
X2.9118Y25.667
X2.9108Y4.331
X47.1058Y25.667
X47.1048Y4.331
M30