G04 Layer: TopSilkscreenLayer*
G04 EasyEDA Pro v3.2.149, 2026-10-06 15:49:22*
G04 Gerber Generator version 0.3*
G04 Scale: 100 percent, Rotated: No, Reflected: No*
G04 Dimensions in millimeters*
G04 Leading zeros omitted, absolute positions, 4 integers and 5 decimals*
G04 Generated by one-click*
G04 Object Configs: Pad,Via,Track,Text,Image,Dimension,BoardOutline,BoardCutout,CopperFilled,SolidRegion,FPCStiffener,Line,PlaneZone,ComponentProperty,ComponentSilkscreen,TearDrop*
G04 Layer Configs: 1,2,3,4,5,6,7,8,9,10,11,13,14,56*
G04 Copper Areas: 0*
%FSLAX45Y45*%
%MOMM*%
%ADD10C,0.2032*%
%ADD11C,0.1524*%
%ADD12C,0.15199*%
%ADD13C,0.254*%
%ADD14C,0.3*%
%ADD15C,0.7445*%
G75*


G04 Image Start*
G36*
G01X1495736Y1012675D02*
G01X1310719Y827724D01*
G01X1310719Y704424D01*
G01X1310719Y581123D01*
G01X1355603Y625463D01*
G01X1400487Y669802D01*
G01X1525289Y545502D01*
G01X1650091Y421203D01*
G01X1650301Y538715D01*
G01X1650511Y656227D01*
G01X1582093Y724624D01*
G01X1513676Y793021D01*
G01X1618763Y898602D01*
G01X1723849Y1004184D01*
G01X1724565Y1004184D01*
G01X1725281Y1004184D01*
G01X1732217Y990929D01*
G01X1739154Y977674D01*
G01X1745877Y962848D01*
G01X1752599Y948021D01*
G01X1757158Y936337D01*
G01X1761716Y924653D01*
G01X1765767Y912776D01*
G01X1769819Y900899D01*
G01X1773530Y887923D01*
G01X1777241Y874947D01*
G01X1779692Y864591D01*
G01X1782143Y854235D01*
G01X1784642Y841395D01*
G01X1787141Y828554D01*
G01X1788815Y817370D01*
G01X1790489Y806186D01*
G01X1791753Y794173D01*
G01X1793018Y782161D01*
G01X1793862Y768920D01*
G01X1794707Y755679D01*
G01X1794707Y737010D01*
G01X1794707Y718342D01*
G01X1793850Y705101D01*
G01X1792994Y691860D01*
G01X1791329Y676948D01*
G01X1789664Y662036D01*
G01X1787665Y649609D01*
G01X1785666Y637183D01*
G01X1783089Y624756D01*
G01X1780512Y612329D01*
G01X1777214Y599074D01*
G01X1773915Y585819D01*
G01X1769301Y570493D01*
G01X1764687Y555166D01*
G01X1759441Y540639D01*
G01X1754196Y526111D01*
G01X1748791Y513136D01*
G01X1743385Y500160D01*
G01X1737095Y486788D01*
G01X1730804Y473416D01*
G01X1724088Y460857D01*
G01X1717372Y448297D01*
G01X1711999Y439184D01*
G01X1706627Y430071D01*
G01X1696446Y414745D01*
G01X1686265Y399419D01*
G01X1678343Y389063D01*
G01X1670422Y378707D01*
G01X1662228Y367938D01*
G01X1654034Y357168D01*
G01X1643361Y344742D01*
G01X1632687Y332316D01*
G01X1618184Y317814D01*
G01X1603681Y303312D01*
G01X1593540Y294422D01*
G01X1583399Y285532D01*
G01X1571164Y275772D01*
G01X1558929Y266012D01*
G01X1548984Y258906D01*
G01X1539039Y251799D01*
G01X1530337Y245998D01*
G01X1521635Y240197D01*
G01X1512934Y234839D01*
G01X1504232Y229481D01*
G01X1493872Y223632D01*
G01X1483513Y217784D01*
G01X1467483Y209767D01*
G01X1451452Y201749D01*
G01X1437234Y195666D01*
G01X1423015Y189584D01*
G01X1407963Y184123D01*
G01X1392911Y178662D01*
G01X1379178Y174522D01*
G01X1365445Y170382D01*
G01X1353739Y167435D01*
G01X1342034Y164488D01*
G01X1327827Y161672D01*
G01X1313620Y158857D01*
G01X1298703Y156791D01*
G01X1283785Y154725D01*
G01X1272597Y153634D01*
G01X1261409Y152542D01*
G01X1220800Y152550D01*
G01X1180192Y152557D01*
G01X1167761Y153615D01*
G01X1155329Y154672D01*
G01X1140412Y156331D01*
G01X1125495Y157990D01*
G01X1112235Y160031D01*
G01X1098975Y162073D01*
G01X1084057Y165042D01*
G01X1069140Y168012D01*
G01X1052708Y172125D01*
G01X1036275Y176238D01*
G01X1021630Y180712D01*
G01X1006984Y185186D01*
G01X994553Y189676D01*
G01X982121Y194166D01*
G01X969276Y199362D01*
G01X956430Y204558D01*
G01X941618Y211447D01*
G01X926806Y218337D01*
G01X913784Y225325D01*
G01X900761Y232313D01*
G01X887430Y240263D01*
G01X874099Y248213D01*
G01X860982Y257002D01*
G01X847865Y265792D01*
G01X833776Y276378D01*
G01X819687Y286965D01*
G01X808229Y296530D01*
G01X796771Y306096D01*
G01X786268Y315590D01*
G01X775764Y325085D01*
G01X758356Y342783D01*
G01X740949Y360482D01*
G01X730322Y372642D01*
G01X719694Y384801D01*
G01X711814Y394595D01*
G01X703933Y404389D01*
G01X702665Y405632D01*
G01X701397Y406875D01*
G01X702451Y404804D01*
G01X703505Y402732D01*
G01X708432Y394895D01*
G01X713358Y387058D01*
G01X723343Y372527D01*
G01X733327Y357996D01*
G01X742685Y345570D01*
G01X752042Y333143D01*
G01X759611Y324041D01*
G01X767180Y314939D01*
G01X776555Y304573D01*
G01X785929Y294206D01*
G01X799084Y281365D01*
G01X812239Y268524D01*
G01X823007Y259079D01*
G01X833776Y249634D01*
G01X846621Y239392D01*
G01X859467Y229151D01*
G01X872508Y219842D01*
G01X885548Y210533D01*
G01X898613Y202133D01*
G01X911678Y193734D01*
G01X925767Y185650D01*
G01X939855Y177566D01*
G01X953944Y170405D01*
G01X968033Y163243D01*
G01X978807Y158399D01*
G01X989580Y153555D01*
G01X1004912Y147355D01*
G01X1020244Y141154D01*
G01X1040962Y134284D01*
G01X1061681Y127414D01*
G01X1074112Y124039D01*
G01X1086544Y120665D01*
G01X1101047Y117413D01*
G01X1115550Y114161D01*
G01X1127152Y112049D01*
G01X1138755Y109938D01*
G01X1153258Y107875D01*
G01X1167761Y105813D01*
G01X1181021Y104546D01*
G01X1194281Y103279D01*
G01X1208369Y102444D01*
G01X1222458Y101608D01*
G01X1244834Y101604D01*
G01X1267210Y101600D01*
G01X1280885Y102421D01*
G01X1294559Y103241D01*
G01X1307819Y104527D01*
G01X1321079Y105812D01*
G01X1335357Y107851D01*
G01X1349635Y109891D01*
G01X1361048Y111986D01*
G01X1372461Y114081D01*
G01X1385721Y117044D01*
G01X1398981Y120008D01*
G01X1413550Y123984D01*
G01X1428120Y127960D01*
G01X1442556Y132696D01*
G01X1456993Y137432D01*
G01X1470667Y142605D01*
G01X1484342Y147778D01*
G01X1496359Y152914D01*
G01X1508375Y158050D01*
G01X1525779Y166631D01*
G01X1543183Y175212D01*
G01X1558929Y184240D01*
G01X1574675Y193268D01*
G01X1585449Y200181D01*
G01X1596223Y207093D01*
G01X1605753Y213733D01*
G01X1615284Y220374D01*
G01X1621499Y224919D01*
G01X1627715Y229464D01*
G01X1641389Y240379D01*
G01X1655064Y251293D01*
G01X1667080Y261970D01*
G01X1679097Y272646D01*
G01X1692839Y286326D01*
G01X1706582Y300005D01*
G01X1715339Y309695D01*
G01X1724096Y319385D01*
G01X1732983Y329992D01*
G01X1741871Y340599D01*
G01X1753695Y356339D01*
G01X1765518Y372080D01*
G01X1774600Y385749D01*
G01X1783682Y399419D01*
G01X1791561Y412674D01*
G01X1799440Y425929D01*
G01X1806678Y439557D01*
G01X1813917Y453185D01*
G01X1820145Y466481D01*
G01X1826374Y479778D01*
G01X1831734Y492618D01*
G01X1837095Y505459D01*
G01X1842358Y519957D01*
G01X1847620Y534455D01*
G01X1851807Y548010D01*
G01X1855994Y561564D01*
G01X1860116Y577834D01*
G01X1864237Y594103D01*
G01X1867108Y608187D01*
G01X1869978Y622271D01*
G01X1872099Y635526D01*
G01X1874220Y648781D01*
G01X1875872Y663693D01*
G01X1877523Y678605D01*
G01X1878561Y691032D01*
G01X1879600Y703458D01*
G01X1879600Y736596D01*
G01X1879600Y769734D01*
G01X1878561Y782161D01*
G01X1877523Y794587D01*
G01X1875872Y809499D01*
G01X1874220Y824411D01*
G01X1872099Y837667D01*
G01X1869978Y850922D01*
G01X1867108Y865005D01*
G01X1864237Y879089D01*
G01X1860068Y895545D01*
G01X1855899Y912002D01*
G01X1850945Y927789D01*
G01X1845991Y943576D01*
G01X1840714Y957726D01*
G01X1835437Y971875D01*
G01X1829821Y985130D01*
G01X1824204Y998385D01*
G01X1813218Y1020339D01*
G01X1802231Y1042293D01*
G01X1794238Y1055962D01*
G01X1786244Y1069631D01*
G01X1775267Y1086200D01*
G01X1764289Y1102769D01*
G01X1753703Y1116853D01*
G01X1743116Y1130936D01*
G01X1735555Y1140044D01*
G01X1727993Y1149152D01*
G01X1718048Y1160341D01*
G01X1708103Y1171530D01*
G01X1695219Y1184578D01*
G01X1682334Y1197626D01*
G01X1681544Y1197626D01*
G01X1680753Y1197626D01*
G01X1495736Y1012675D01*
G37*
G36*
G01X1212927Y1371023D02*
G01X1207540Y1370766D01*
G01X1191794Y1369495D01*
G01X1176048Y1368224D01*
G01X1163203Y1366584D01*
G01X1150357Y1364943D01*
G01X1137926Y1362851D01*
G01X1125495Y1360758D01*
G01X1115135Y1358641D01*
G01X1104776Y1356523D01*
G01X1088201Y1352385D01*
G01X1071626Y1348248D01*
G01X1055513Y1343299D01*
G01X1039401Y1338351D01*
G01X1024850Y1332950D01*
G01X1010299Y1327549D01*
G01X995381Y1321233D01*
G01X980464Y1314917D01*
G01X962646Y1306068D01*
G01X944828Y1297218D01*
G01X930937Y1289278D01*
G01X917047Y1281339D01*
G01X906904Y1274931D01*
G01X896761Y1268524D01*
G01X888888Y1263179D01*
G01X881014Y1257834D01*
G01X870241Y1249986D01*
G01X859467Y1242137D01*
G01X847865Y1232836D01*
G01X836262Y1223535D01*
G01X825488Y1214156D01*
G01X814715Y1204777D01*
G01X795200Y1185254D01*
G01X775686Y1165731D01*
G01X765323Y1153719D01*
G01X754960Y1141706D01*
G01X748303Y1133422D01*
G01X741646Y1125137D01*
G01X733349Y1113953D01*
G01X725052Y1102769D01*
G01X717988Y1092414D01*
G01X710924Y1082058D01*
G01X704627Y1071959D01*
G01X698330Y1061860D01*
G01X691113Y1049177D01*
G01X683897Y1036494D01*
G01X675808Y1020339D01*
G01X667720Y1004184D01*
G01X663025Y993414D01*
G01X658329Y982645D01*
G01X654171Y972289D01*
G01X650012Y961933D01*
G01X645885Y950335D01*
G01X641757Y938737D01*
G01X637272Y924239D01*
G01X632787Y909741D01*
G01X628693Y893587D01*
G01X624600Y877432D01*
G01X622095Y865005D01*
G01X619591Y852579D01*
G01X618300Y845123D01*
G01X617009Y837667D01*
G01X616176Y831867D01*
G01X615342Y826068D01*
G01X614192Y816955D01*
G01X613041Y807843D01*
G01X612145Y797901D01*
G01X611248Y787960D01*
G01X610424Y777876D01*
G01X609600Y767792D01*
G01X609600Y736596D01*
G01X609600Y705400D01*
G01X610424Y695316D01*
G01X611248Y685232D01*
G01X612145Y675291D01*
G01X613041Y665350D01*
G01X614232Y655905D01*
G01X615423Y646460D01*
G01X617109Y635608D01*
G01X618795Y624756D01*
G01X621694Y610258D01*
G01X624593Y595760D01*
G01X627914Y582505D01*
G01X631235Y569250D01*
G01X634905Y556745D01*
G01X638576Y544240D01*
G01X643652Y529406D01*
G01X648727Y514573D01*
G01X652857Y504217D01*
G01X656986Y493861D01*
G01X660328Y485991D01*
G01X663669Y478121D01*
G01X669054Y466523D01*
G01X674439Y454925D01*
G01X681173Y442291D01*
G01X687907Y429657D01*
G01X688362Y429657D01*
G01X688817Y429657D01*
G01X701212Y442279D01*
G01X713608Y454902D01*
G01X911056Y652695D01*
G01X1108505Y850488D01*
G01X1108505Y761440D01*
G01X1108505Y672392D01*
G01X1045446Y672392D01*
G01X982386Y672392D01*
G01X899686Y590168D01*
G01X816986Y507945D01*
G01X962746Y507736D01*
G01X1108505Y507526D01*
G01X1108505Y463621D01*
G01X1108505Y419716D01*
G01X1201325Y419716D01*
G01X1294144Y419716D01*
G01X1294144Y757722D01*
G01X1294144Y1095727D01*
G01X1213549Y1095718D01*
G01X1132953Y1095709D01*
G01X916672Y878731D01*
G01X700391Y661753D01*
G01X699868Y662076D01*
G01X699346Y662399D01*
G01X698784Y667602D01*
G01X698221Y672806D01*
G01X697015Y684625D01*
G01X695808Y696444D01*
G01X694982Y716592D01*
G01X694157Y736741D01*
G01X694974Y755964D01*
G01X695792Y775188D01*
G01X697046Y787373D01*
G01X698299Y799558D01*
G01X700003Y811571D01*
G01X701707Y823583D01*
G01X704915Y839798D01*
G01X708122Y856013D01*
G01X710703Y866308D01*
G01X713283Y876604D01*
G01X716953Y889108D01*
G01X720622Y901613D01*
G01X725595Y916148D01*
G01X730569Y930683D01*
G01X735862Y943823D01*
G01X741156Y956963D01*
G01X745134Y966076D01*
G01X749111Y975189D01*
G01X758801Y994243D01*
G01X768490Y1013297D01*
G01X774257Y1023238D01*
G01X780024Y1033180D01*
G01X785661Y1042293D01*
G01X791298Y1051406D01*
G01X800742Y1065331D01*
G01X810186Y1079257D01*
G01X818848Y1090743D01*
G01X827509Y1102229D01*
G01X835539Y1112026D01*
G01X843569Y1121824D01*
G01X851926Y1131351D01*
G01X860283Y1140878D01*
G01X875207Y1156083D01*
G01X890131Y1171289D01*
G01X900909Y1181089D01*
G01X911687Y1190889D01*
G01X923285Y1200555D01*
G01X934883Y1210221D01*
G01X947600Y1219772D01*
G01X960317Y1229323D01*
G01X974120Y1238569D01*
G01X987923Y1247815D01*
G01X999111Y1254494D01*
G01X1010299Y1261172D01*
G01X1017759Y1265328D01*
G01X1025218Y1269485D01*
G01X1038477Y1276115D01*
G01X1051736Y1282744D01*
G01X1062313Y1287416D01*
G01X1072889Y1292088D01*
G01X1083446Y1296300D01*
G01X1094002Y1300511D01*
G01X1106019Y1304612D01*
G01X1118036Y1308712D01*
G01X1129224Y1311936D01*
G01X1140412Y1315160D01*
G01X1150357Y1317646D01*
G01X1160302Y1320133D01*
G01X1170661Y1322200D01*
G01X1181021Y1324267D01*
G01X1188894Y1325523D01*
G01X1196767Y1326778D01*
G01X1202568Y1327602D01*
G01X1208369Y1328426D01*
G01X1212513Y1328874D01*
G01X1216657Y1329323D01*
G01X1222044Y1329791D01*
G01X1227430Y1330258D01*
G01X1235718Y1330954D01*
G01X1244005Y1331649D01*
G01X1270940Y1331595D01*
G01X1297874Y1331542D01*
G01X1309476Y1330916D01*
G01X1321079Y1330289D01*
G01X1335167Y1329337D01*
G01X1349256Y1328386D01*
G01X1351328Y1328104D01*
G01X1353400Y1327823D01*
G01X1358787Y1327313D01*
G01X1364174Y1326803D01*
G01X1371632Y1325934D01*
G01X1379091Y1325066D01*
G01X1393594Y1322991D01*
G01X1408097Y1320916D01*
G01X1420943Y1318548D01*
G01X1433788Y1316180D01*
G01X1441661Y1314500D01*
G01X1449534Y1312820D01*
G01X1461508Y1309872D01*
G01X1473483Y1306923D01*
G01X1484713Y1303675D01*
G01X1495944Y1300427D01*
G01X1503817Y1297852D01*
G01X1511690Y1295278D01*
G01X1523293Y1291071D01*
G01X1534895Y1286864D01*
G01X1547326Y1281684D01*
G01X1559758Y1276504D01*
G01X1570134Y1271590D01*
G01X1580510Y1266675D01*
G01X1592510Y1260167D01*
G01X1604510Y1253660D01*
G01X1614041Y1247919D01*
G01X1623571Y1242178D01*
G01X1634759Y1234682D01*
G01X1645947Y1227186D01*
G01X1654028Y1221075D01*
G01X1662108Y1214963D01*
G01X1662108Y1215332D01*
G01X1662108Y1215702D01*
G01X1652784Y1223531D01*
G01X1643461Y1231360D01*
G01X1633930Y1238752D01*
G01X1624400Y1246144D01*
G01X1616941Y1251576D01*
G01X1609482Y1257008D01*
G01X1595808Y1266117D01*
G01X1582134Y1275226D01*
G01X1570946Y1281926D01*
G01X1559758Y1288626D01*
G01X1548984Y1294551D01*
G01X1538210Y1300475D01*
G01X1524122Y1307349D01*
G01X1510033Y1314222D01*
G01X1500088Y1318554D01*
G01X1490143Y1322885D01*
G01X1477712Y1327863D01*
G01X1465281Y1332842D01*
G01X1445805Y1339335D01*
G01X1426330Y1345829D01*
G01X1410998Y1349916D01*
G01X1395666Y1354003D01*
G01X1379920Y1357376D01*
G01X1364174Y1360749D01*
G01X1351742Y1362827D01*
G01X1339311Y1364906D01*
G01X1326051Y1366541D01*
G01X1312791Y1368177D01*
G01X1304089Y1369052D01*
G01X1295388Y1369928D01*
G01X1280117Y1370764D01*
G01X1264846Y1371600D01*
G01X1241580Y1371440D01*
G01X1218314Y1371281D01*
G01X1212927Y1371023D01*
G37*
G36*
G01X700762Y407703D02*
G01X700762Y407289D01*
G01X701176Y407289D01*
G01X701591Y407289D01*
G01X701591Y407703D01*
G01X701591Y408117D01*
G01X701176Y408117D01*
G01X700762Y408117D01*
G01X700762Y407703D01*
G37*
G04 Image End*

G04 Text Start*
G54D10*
G01X246380Y1742440D02*
G01X126238Y1742440D01*
G01X246380Y1694688D02*
G01X126238Y1694688D01*
G01X246380Y1694688D02*
G01X126238Y1614678D01*
G01X246380Y1614678D02*
G01X126238Y1614678D01*
G01X246380Y1566926D02*
G01X126238Y1566926D01*
G01X246380Y1566926D02*
G01X246380Y1515364D01*
G01X240538Y1498346D01*
G01X234950Y1492504D01*
G01X223520Y1486916D01*
G01X206248Y1486916D01*
G01X194818Y1492504D01*
G01X189230Y1498346D01*
G01X183388Y1515364D01*
G01X183388Y1566926D01*
G01X246380Y1439164D02*
G01X160528Y1439164D01*
G01X143510Y1433322D01*
G01X132080Y1421892D01*
G01X126238Y1404874D01*
G01X126238Y1393444D01*
G01X132080Y1376172D01*
G01X143510Y1364742D01*
G01X160528Y1359154D01*
G01X246380Y1359154D01*
G01X246380Y1271270D02*
G01X126238Y1271270D01*
G01X246380Y1311402D02*
G01X246380Y1231392D01*
G01X4681220Y1162050D02*
G01X4687062Y1150620D01*
G01X4698492Y1139190D01*
G01X4709922Y1133602D01*
G01X4726940Y1127760D01*
G01X4755642Y1127760D01*
G01X4772660Y1133602D01*
G01X4784090Y1139190D01*
G01X4795520Y1150620D01*
G01X4801362Y1162050D01*
G01X4801362Y1184910D01*
G01X4795520Y1196340D01*
G01X4784090Y1207770D01*
G01X4772660Y1213612D01*
G01X4755642Y1219200D01*
G01X4726940Y1219200D01*
G01X4709922Y1213612D01*
G01X4698492Y1207770D01*
G01X4687062Y1196340D01*
G01X4681220Y1184910D01*
G01X4681220Y1162050D01*
G01X4681220Y1266952D02*
G01X4767072Y1266952D01*
G01X4784090Y1272794D01*
G01X4795520Y1284224D01*
G01X4801362Y1301242D01*
G01X4801362Y1312672D01*
G01X4795520Y1329944D01*
G01X4784090Y1341374D01*
G01X4767072Y1346962D01*
G01X4681220Y1346962D01*
G01X4681220Y1434846D02*
G01X4801362Y1434846D01*
G01X4681220Y1394714D02*
G01X4681220Y1474724D01*
G01X4681220Y1522476D02*
G01X4801362Y1522476D01*
G01X4681220Y1522476D02*
G01X4681220Y1574038D01*
G01X4687062Y1591056D01*
G01X4692650Y1596898D01*
G01X4704080Y1602486D01*
G01X4721352Y1602486D01*
G01X4732782Y1596898D01*
G01X4738370Y1591056D01*
G01X4744212Y1574038D01*
G01X4744212Y1522476D01*
G01X4681220Y1650238D02*
G01X4767072Y1650238D01*
G01X4784090Y1656080D01*
G01X4795520Y1667510D01*
G01X4801362Y1684528D01*
G01X4801362Y1695958D01*
G01X4795520Y1713230D01*
G01X4784090Y1724660D01*
G01X4767072Y1730248D01*
G01X4681220Y1730248D01*
G01X4681220Y1818132D02*
G01X4801362Y1818132D01*
G01X4681220Y1778000D02*
G01X4681220Y1858010D01*
G01X191770Y2086610D02*
G01X191770Y1926590D01*
G01X111760Y2006600D02*
G01X271780Y2006600D01*
G01X4763770Y2086610D02*
G01X4763770Y1926590D01*
G01X4683760Y2006600D02*
G01X4843780Y2006600D01*
G01X4749800Y924560D02*
G01X4749800Y1084580D01*
G01X203200Y924560D02*
G01X203200Y1084580D01*
G04 Text End*

G04 PolygonModel Start*
G54D11*
G01X648746Y2455161D02*
G01X648746Y2505161D01*
G01X733224Y2439919D02*
G01X663984Y2439919D01*
G01X748464Y2505161D02*
G01X748464Y2455161D01*
G01X748251Y2599439D02*
G01X748251Y2549439D01*
G01X648538Y2549439D02*
G01X648538Y2599439D01*
G01X663773Y2614681D02*
G01X733016Y2614681D01*
G01X648536Y2599439D02*
G02X663776Y2614679I15240J0D01*
G01X733016Y2614679D02*
G02X748256Y2599439I0J-15240D01*
G01X748464Y2455161D02*
G02X733224Y2439921I-15240J0D01*
G01X663984Y2439921D02*
G02X648744Y2455161I0J15240D01*
G01X2421639Y1093246D02*
G01X2371639Y1093246D01*
G01X2436881Y1177724D02*
G01X2436881Y1108484D01*
G01X2371639Y1192964D02*
G01X2421639Y1192964D01*
G01X2277361Y1192751D02*
G01X2327361Y1192751D01*
G01X2327361Y1093038D02*
G01X2277361Y1093038D01*
G01X2262119Y1108273D02*
G01X2262119Y1177516D01*
G01X2277361Y1093036D02*
G02X2262121Y1108276I0J15240D01*
G01X2262121Y1177516D02*
G02X2277361Y1192756I15240J0D01*
G01X2421639Y1192964D02*
G02X2436879Y1177724I0J-15240D01*
G01X2436879Y1108484D02*
G02X2421639Y1093244I-15240J0D01*
G01X4242846Y2455161D02*
G01X4242846Y2505161D01*
G01X4327324Y2439919D02*
G01X4258084Y2439919D01*
G01X4342564Y2505161D02*
G01X4342564Y2455161D01*
G01X4342351Y2599439D02*
G01X4342351Y2549439D01*
G01X4242638Y2549439D02*
G01X4242638Y2599439D01*
G01X4257873Y2614681D02*
G01X4327116Y2614681D01*
G01X4242636Y2599439D02*
G02X4257876Y2614679I15240J0D01*
G01X4327116Y2614679D02*
G02X4342356Y2599439I0J-15240D01*
G01X4342564Y2455161D02*
G02X4327324Y2439921I-15240J0D01*
G01X4258084Y2439921D02*
G02X4242844Y2455161I0J15240D01*
G54D12*
G01X3009900Y1041400D02*
G01X2844800Y1041400D01*
G01X2844800Y1041400D02*
G01X2819400Y1066800D01*
G01X2819400Y1066800D02*
G01X2819400Y1295400D01*
G01X2819400Y1295400D02*
G01X2844800Y1320800D01*
G01X2844800Y1320800D02*
G01X3009900Y1320800D01*
G01X3162300Y1320800D02*
G01X3327400Y1320800D01*
G01X3327400Y1320800D02*
G01X3352800Y1295400D01*
G01X3352800Y1295400D02*
G01X3352800Y1066800D01*
G01X3352800Y1066800D02*
G01X3327400Y1041400D01*
G01X3327400Y1041400D02*
G01X3162300Y1041400D01*
G54D11*
G01X2281479Y2313960D02*
G01X2185591Y2313960D01*
G01X2185591Y2313960D02*
G01X2185591Y2181840D01*
G01X2185591Y2181840D02*
G01X2281479Y2181840D01*
G01X2366721Y2313960D02*
G01X2462609Y2313960D01*
G01X2462609Y2313960D02*
G01X2462609Y2181840D01*
G01X2462609Y2181840D02*
G01X2366721Y2181840D01*
G01X2695179Y2096440D02*
G01X2623376Y2096440D01*
G01X2623376Y2096440D02*
G01X2623376Y2196160D01*
G01X2623376Y2196160D02*
G01X2695179Y2196160D01*
G01X2740421Y2096440D02*
G01X2812225Y2096440D01*
G01X2812225Y2096440D02*
G01X2812225Y2196160D01*
G01X2812225Y2196160D02*
G01X2740421Y2196160D01*
G01X2740421Y2297760D02*
G01X2812225Y2297760D01*
G01X2812225Y2297760D02*
G01X2812225Y2198040D01*
G01X2812225Y2198040D02*
G01X2740421Y2198040D01*
G01X2695179Y2297760D02*
G01X2623376Y2297760D01*
G01X2623376Y2297760D02*
G01X2623376Y2198040D01*
G01X2623376Y2198040D02*
G01X2695179Y2198040D01*
G54D13*
G01X2210143Y1907239D02*
G01X2720150Y1907239D01*
G01X2720124Y1907239D02*
G01X2720124Y1497232D01*
G01X2720124Y1497232D02*
G01X2210118Y1497232D01*
G01X2210143Y1782246D02*
G01X2210143Y1907239D01*
G01X2210143Y1622226D02*
G01X2210143Y1497232D01*
G01X2215147Y1782246D02*
G02X2215147Y1622226I-37529J-80010D01*
G01X1267587Y2615413D02*
G01X1267587Y2513813D01*
G01X1317600Y2563800D02*
G01X1216000Y2563800D01*
G36*
G01X1282700Y2284400D02*
G02X952500Y2284400I-165100J157746D01*
G01X1282700Y2284400D01*
G37*
G01X3959987Y2615413D02*
G01X3959987Y2513813D01*
G01X4010000Y2563800D02*
G01X3908400Y2563800D01*
G36*
G01X3975100Y2284400D02*
G02X3644900Y2284400I-165100J157746D01*
G01X3975100Y2284400D01*
G37*

G04 Circle Start*
G01X2145119Y1452224D02*
G03X2179155Y1452224I17018J0D01*
G03X2145119Y1452224I-17018J0D01*
G54D14*
G01X867588Y2463800D02*
G03X1367612Y2463800I250012J0D01*
G03X867588Y2463800I-250012J0D01*
G01X3559988Y2463800D02*
G03X4060012Y2463800I250012J0D01*
G03X3559988Y2463800I-250012J0D01*
G04 Circle End*

M02*

