G04 Layer: BottomLayer*
G04 EasyEDA Pro v3.2.149, 2026-10-06 15:49:22*
G04 Gerber Generator version 0.3*
G04 Scale: 100 percent, Rotated: No, Reflected: No*
G04 Dimensions in millimeters*
G04 Leading zeros omitted, absolute positions, 4 integers and 5 decimals*
G04 Generated by one-click*
G04 Object Configs: Pad,Via,Track,Text,Image,Dimension,BoardOutline,BoardCutout,CopperFilled,SolidRegion,FPCStiffener,Line,PlaneZone,ComponentProperty,ComponentSilkscreen,TearDrop*
G04 Layer Configs: 1,2,3,4,5,6,7,8,9,10,11,13,14,56*
G04 Copper Areas: 7*
%FSLAX45Y45*%
%MOMM*%
%ADD10C,0.2032*%
%ADD11C,0.254*%
%ADD12C,1.3*%
%ADD13C,0.61*%
%ADD14C,2.54*%
%ADD15C,0.5721*%
G75*


G04 Copper Start*
G36*
G01X4959106Y2959106D02*
G01X4959106Y40894D01*
G01X40894Y40894D01*
G01X40894Y1407835D01*
G01X2143582Y1407835D01*
G01X2146179Y1392699D01*
G01X2152188Y1378567D01*
G01X2161286Y1366196D01*
G01X2161286Y1188210D01*
G01X2152188Y1175839D01*
G01X2146179Y1161706D01*
G01X2143582Y1146571D01*
G01X2144536Y1131244D01*
G01X2148990Y1116547D01*
G01X2156706Y1103269D01*
G01X2167268Y1092122D01*
G01X2180111Y1083703D01*
G01X2194547Y1078464D01*
G01X2209800Y1076686D01*
G01X2225053Y1078464D01*
G01X2239489Y1083703D01*
G01X2252332Y1092122D01*
G01X2262894Y1103269D01*
G01X2270610Y1116547D01*
G01X2275064Y1131244D01*
G01X2276018Y1146571D01*
G01X2273421Y1161706D01*
G01X2267412Y1175839D01*
G01X2258314Y1188210D01*
G01X2258314Y1366196D01*
G01X2267412Y1378567D01*
G01X2273421Y1392699D01*
G01X2276018Y1407835D01*
G01X2275064Y1423162D01*
G01X2270610Y1437859D01*
G01X2262894Y1451137D01*
G01X2252332Y1462284D01*
G01X2239489Y1470703D01*
G01X2225053Y1475942D01*
G01X2209800Y1477720D01*
G01X2209800Y1477720D01*
G01X2194547Y1475942D01*
G01X2180111Y1470703D01*
G01X2167268Y1462284D01*
G01X2156706Y1451137D01*
G01X2148990Y1437859D01*
G01X2144536Y1423162D01*
G01X2143582Y1407835D01*
G01X40894Y1407835D01*
G01X40894Y2566700D01*
G01X105366Y2566700D01*
G01X107257Y2540256D01*
G01X112893Y2514350D01*
G01X122158Y2489510D01*
G01X134863Y2466241D01*
G01X150751Y2445018D01*
G01X169498Y2426271D01*
G01X190721Y2410383D01*
G01X213990Y2397678D01*
G01X238830Y2388413D01*
G01X264736Y2382777D01*
G01X291180Y2380886D01*
G01X317624Y2382777D01*
G01X343530Y2388413D01*
G01X368370Y2397678D01*
G01X391639Y2410383D01*
G01X412862Y2426271D01*
G01X431609Y2445018D01*
G01X447497Y2466241D01*
G01X460202Y2489510D01*
G01X469467Y2514350D01*
G01X475103Y2540256D01*
G01X476994Y2566700D01*
G01X476743Y2570206D01*
G01X1016990Y2570206D01*
G01X1017570Y2551249D01*
G01X1021691Y2532737D01*
G01X1029206Y2515324D01*
G01X1039849Y2499626D01*
G01X1053244Y2486200D01*
G01X1068916Y2475520D01*
G01X1086312Y2467964D01*
G01X1104814Y2463800D01*
G01X1086312Y2459636D01*
G01X1068916Y2452080D01*
G01X1053244Y2441400D01*
G01X1039849Y2427974D01*
G01X1029206Y2412276D01*
G01X1021691Y2394863D01*
G01X1017570Y2376351D01*
G01X1016990Y2357394D01*
G01X1019970Y2338665D01*
G01X1026405Y2320824D01*
G01X1036068Y2304505D01*
G01X1048616Y2290284D01*
G01X1063605Y2278665D01*
G01X1080506Y2270059D01*
G01X1098719Y2264770D01*
G01X1117600Y2262986D01*
G01X1136481Y2264770D01*
G01X1154694Y2270059D01*
G01X1171595Y2278665D01*
G01X1186584Y2290284D01*
G01X1199132Y2304505D01*
G01X1208795Y2320824D01*
G01X1215230Y2338665D01*
G01X1218210Y2357394D01*
G01X1217630Y2376351D01*
G01X1213509Y2394863D01*
G01X1205994Y2412276D01*
G01X1195351Y2427974D01*
G01X1181956Y2441400D01*
G01X1166284Y2452080D01*
G01X1148888Y2459636D01*
G01X1130386Y2463800D01*
G01X1148888Y2467964D01*
G01X1166284Y2475520D01*
G01X1181956Y2486200D01*
G01X1195351Y2499626D01*
G01X1205994Y2515324D01*
G01X1213509Y2532737D01*
G01X1217630Y2551249D01*
G01X1218210Y2570206D01*
G01X3709390Y2570206D01*
G01X3709970Y2551249D01*
G01X3714091Y2532737D01*
G01X3721606Y2515324D01*
G01X3732249Y2499626D01*
G01X3745644Y2486200D01*
G01X3761316Y2475520D01*
G01X3778712Y2467964D01*
G01X3797214Y2463800D01*
G01X3778712Y2459636D01*
G01X3761316Y2452080D01*
G01X3745644Y2441400D01*
G01X3732249Y2427974D01*
G01X3721606Y2412276D01*
G01X3714091Y2394863D01*
G01X3709970Y2376351D01*
G01X3709390Y2357394D01*
G01X3712370Y2338665D01*
G01X3718805Y2320824D01*
G01X3728468Y2304505D01*
G01X3741016Y2290284D01*
G01X3756005Y2278665D01*
G01X3772906Y2270059D01*
G01X3791119Y2264770D01*
G01X3810000Y2262986D01*
G01X3828881Y2264770D01*
G01X3847094Y2270059D01*
G01X3863995Y2278665D01*
G01X3878984Y2290284D01*
G01X3891532Y2304505D01*
G01X3901195Y2320824D01*
G01X3907630Y2338665D01*
G01X3910610Y2357394D01*
G01X3910030Y2376351D01*
G01X3905909Y2394863D01*
G01X3898394Y2412276D01*
G01X3887751Y2427974D01*
G01X3874356Y2441400D01*
G01X3858684Y2452080D01*
G01X3841288Y2459636D01*
G01X3822786Y2463800D01*
G01X3841288Y2467964D01*
G01X3858684Y2475520D01*
G01X3874356Y2486200D01*
G01X3887751Y2499626D01*
G01X3898394Y2515324D01*
G01X3905909Y2532737D01*
G01X3910030Y2551249D01*
G01X3910503Y2566700D01*
G01X4524766Y2566700D01*
G01X4526657Y2540256D01*
G01X4532293Y2514350D01*
G01X4541558Y2489510D01*
G01X4554263Y2466241D01*
G01X4570151Y2445018D01*
G01X4588898Y2426271D01*
G01X4610121Y2410383D01*
G01X4633390Y2397678D01*
G01X4658230Y2388413D01*
G01X4684136Y2382777D01*
G01X4710580Y2380886D01*
G01X4737024Y2382777D01*
G01X4762930Y2388413D01*
G01X4787770Y2397678D01*
G01X4811038Y2410383D01*
G01X4832262Y2426271D01*
G01X4851009Y2445018D01*
G01X4866897Y2466241D01*
G01X4879602Y2489510D01*
G01X4888867Y2514350D01*
G01X4894502Y2540256D01*
G01X4896394Y2566700D01*
G01X4894502Y2593144D01*
G01X4888867Y2619050D01*
G01X4879602Y2643890D01*
G01X4866897Y2667159D01*
G01X4851009Y2688382D01*
G01X4832262Y2707129D01*
G01X4811038Y2723017D01*
G01X4787770Y2735722D01*
G01X4762930Y2744987D01*
G01X4737024Y2750623D01*
G01X4710580Y2752514D01*
G01X4684136Y2750623D01*
G01X4658230Y2744987D01*
G01X4633390Y2735722D01*
G01X4610121Y2723017D01*
G01X4588898Y2707129D01*
G01X4570151Y2688382D01*
G01X4554263Y2667159D01*
G01X4541558Y2643890D01*
G01X4532293Y2619050D01*
G01X4526657Y2593144D01*
G01X4524766Y2566700D01*
G01X4524766Y2566700D01*
G01X3910503Y2566700D01*
G01X3910610Y2570206D01*
G01X3907630Y2588935D01*
G01X3901195Y2606776D01*
G01X3891532Y2623095D01*
G01X3878984Y2637316D01*
G01X3863995Y2648935D01*
G01X3847094Y2657541D01*
G01X3828881Y2662830D01*
G01X3810000Y2664614D01*
G01X3810000Y2664614D01*
G01X3791119Y2662830D01*
G01X3772906Y2657541D01*
G01X3756005Y2648935D01*
G01X3741016Y2637316D01*
G01X3728468Y2623095D01*
G01X3718805Y2606776D01*
G01X3712370Y2588935D01*
G01X3709390Y2570206D01*
G01X1218210Y2570206D01*
G01X1215230Y2588935D01*
G01X1208795Y2606776D01*
G01X1199132Y2623095D01*
G01X1186584Y2637316D01*
G01X1171595Y2648935D01*
G01X1154694Y2657541D01*
G01X1136481Y2662830D01*
G01X1117600Y2664614D01*
G01X1117600Y2664614D01*
G01X1098719Y2662830D01*
G01X1080506Y2657541D01*
G01X1063605Y2648935D01*
G01X1048616Y2637316D01*
G01X1036068Y2623095D01*
G01X1026405Y2606776D01*
G01X1019970Y2588935D01*
G01X1016990Y2570206D01*
G01X476743Y2570206D01*
G01X475103Y2593144D01*
G01X469467Y2619050D01*
G01X460202Y2643890D01*
G01X447497Y2667159D01*
G01X431609Y2688382D01*
G01X412862Y2707129D01*
G01X391639Y2723017D01*
G01X368370Y2735722D01*
G01X343530Y2744987D01*
G01X317624Y2750623D01*
G01X291180Y2752514D01*
G01X264736Y2750623D01*
G01X238830Y2744987D01*
G01X213990Y2735722D01*
G01X190721Y2723017D01*
G01X169498Y2707129D01*
G01X150751Y2688382D01*
G01X134863Y2667159D01*
G01X122158Y2643890D01*
G01X112893Y2619050D01*
G01X107257Y2593144D01*
G01X105366Y2566700D01*
G01X105366Y2566700D01*
G01X40894Y2566700D01*
G01X40894Y2959106D01*
G01X4959106Y2959106D01*
G37*
G54D10*
G01X4959106Y2959106D02*
G01X4959106Y40894D01*
G01X40894Y40894D01*
G01X40894Y2959106D01*
G01X4959106Y2959106D01*
G01X105366Y2566700D02*
G03X476994Y2566700I185814J0D01*
G03X105366Y2566700I-185814J0D01*
G01X1117600Y2664614D02*
G03X1104814Y2463800I0J-100814D01*
G03X1117600Y2262986I12786J-100000D01*
G03X1130386Y2463800I0J100814D01*
G03X1117600Y2664614I-12786J100000D01*
G01X2209800Y1477720D02*
G03X2161286Y1366196I0J-66314D01*
G01X2161286Y1188210D01*
G03X2209800Y1076686I48514J-45210D01*
G03X2258314Y1188210I0J66314D01*
G01X2258314Y1366196D01*
G03X2209800Y1477720I-48514J45210D01*
G01X3810000Y2664614D02*
G03X3797214Y2463800I0J-100814D01*
G03X3810000Y2262986I12786J-100000D01*
G03X3822786Y2463800I0J100814D01*
G03X3810000Y2664614I-12786J100000D01*
G01X4524766Y2566700D02*
G03X4896394Y2566700I185814J0D01*
G03X4524766Y2566700I-185814J0D01*
G54D11*
G01X1117600Y2363800D02*
G01X1117600Y2273146D01*
G01X1117600Y2363800D02*
G01X1208254Y2363800D01*
G01X1117600Y2363800D02*
G01X1026946Y2363800D01*
G01X3810000Y2363800D02*
G01X3810000Y2273146D01*
G01X3810000Y2363800D02*
G01X3900654Y2363800D01*
G01X3810000Y2363800D02*
G01X3719346Y2363800D01*
G04 Copper End*

G04 Pad Start*
G54D12*
G01X1117600Y2563800D03*
G01X1117600Y2363800D03*
G01X3810000Y2563800D03*
G01X3810000Y2363800D03*
G04 Pad End*

G04 Via Start*
G54D13*
G01X2465134Y1702236D03*
G01X2565400Y1625600D03*
G01X2565400Y1778022D03*
G01X2366045Y1778022D03*
G01X2366045Y1625668D03*
G01X698500Y2387600D03*
G01X2655634Y1295400D03*
G01X2870200Y2247900D03*
G01X4292600Y2387600D03*
G01X2768600Y1828800D03*
G01X2768600Y1574800D03*
G01X2895600Y1828800D03*
G01X2895600Y1574800D03*
G01X2819400Y1701800D03*
G01X2209800Y1143000D03*
G01X2209800Y1411406D03*
G01X2159000Y1549400D03*
G01X2032000Y1549400D03*
G01X2108200Y1701800D03*
G01X2032000Y1828800D03*
G01X2159000Y1828800D03*
G54D14*
G01X291180Y2566700D03*
G01X291080Y433100D03*
G01X4710580Y2566700D03*
G01X4710480Y433100D03*
G04 Via End*

G04 Track Start*
G54D11*
G01X2209800Y1143000D02*
G01X2209800Y1411406D01*
G04 Track End*

M02*

